<mxfile host="app.diagrams.net" modified="2024-04-09T14:45:53.278Z" agent="Mozilla/5.0 (Windows NT 10.0; Win64; x64) AppleWebKit/537.36 (KHTML, like Gecko) Chrome/123.0.0.0 Safari/537.36" etag="qwKKl90hH3Vgb-vH2Ggp" version="24.2.3" type="github">
  <diagram name="第 1 页" id="YlOgD8HyuWCCaGT0y-z9">
    <mxGraphModel dx="1621" dy="458" grid="1" gridSize="10" guides="1" tooltips="1" connect="1" arrows="1" fold="1" page="1" pageScale="1" pageWidth="827" pageHeight="1169" math="0" shadow="0">
      <root>
        <mxCell id="0" />
        <mxCell id="1" parent="0" />
        <mxCell id="GzmQafAF1eVMU9IgYLYu-3" value="" style="rounded=1;whiteSpace=wrap;html=1;" vertex="1" parent="1">
          <mxGeometry x="-500" y="30" width="380" height="270" as="geometry" />
        </mxCell>
        <mxCell id="GzmQafAF1eVMU9IgYLYu-5" value="" style="rounded=1;whiteSpace=wrap;html=1;" vertex="1" parent="1">
          <mxGeometry x="-110" y="30" width="590" height="400" as="geometry" />
        </mxCell>
      </root>
    </mxGraphModel>
  </diagram>
</mxfile>
